<?xml version="1.0" encoding="utf-8"?>
<!-- Generator: Adobe Illustrator 16.0.0, SVG Export Plug-In . SVG Version: 6.00 Build 0)  -->
<!DOCTYPE svg PUBLIC "-//W3C//DTD SVG 1.1//EN" "http://www.w3.org/Graphics/SVG/1.1/DTD/svg11.dtd" [
	<!ENTITY ns_extend "http://ns.adobe.com/Extensibility/1.0/">
	<!ENTITY ns_ai "http://ns.adobe.com/AdobeIllustrator/10.0/">
	<!ENTITY ns_graphs "http://ns.adobe.com/Graphs/1.0/">
	<!ENTITY ns_vars "http://ns.adobe.com/Variables/1.0/">
	<!ENTITY ns_imrep "http://ns.adobe.com/ImageReplacement/1.0/">
	<!ENTITY ns_sfw "http://ns.adobe.com/SaveForWeb/1.0/">
	<!ENTITY ns_custom "http://ns.adobe.com/GenericCustomNamespace/1.0/">
	<!ENTITY ns_adobe_xpath "http://ns.adobe.com/XPath/1.0/">
]>
<svg version="1.1" id="Vrstva_1" xmlns:x="&ns_extend;" xmlns:i="&ns_ai;" xmlns:graph="&ns_graphs;"
	 xmlns="http://www.w3.org/2000/svg" xmlns:xlink="http://www.w3.org/1999/xlink" x="0px" y="0px" width="595.279px"
	 height="146.445px" viewBox="0 0 595.279 146.445" enable-background="new 0 0 595.279 146.445" xml:space="preserve">
<metadata>
	<sfw  xmlns="&ns_sfw;">
		<slices></slices>
		<sliceSourceBounds  width="564.851" height="126.142" y="244.104" x="15.367" bottomLeftOrigin="true"></sliceSourceBounds>
	</sfw>
</metadata>
<g>
	<g>
		<path fill="#F7941D" d="M19.691,27.704c-2.479,5.54-4.275,11.451-5.271,17.633l23.803-10.081V19.81L21.06,27.123L19.691,27.704z"
			/>
	</g>
	<g>
		<path fill="#F7941D" d="M13.507,56.699c0,21.537,9.592,40.82,24.717,53.859V38.322L13.98,48.591
			C13.677,51.253,13.507,53.956,13.507,56.699z"/>
	</g>
	<g>
		<polygon fill="#F7941D" points="41.049,23.013 41.049,34.603 90.536,56.699 90.536,40.836 41.049,18.606 		"/>
	</g>
	<g>
		<path fill="#F7941D" d="M131.098,12.327V71.46l-26.741-12.019v12.576l26.741,11.952v2.904l-26.741-11.929v50.039
			c9.984-2.902,19.078-7.906,26.741-14.543v19.168h5.585V12.327H131.098z M120.471,110.917l-6.058-2.701v-5.532v-2.104l6.058,2.717
			V110.917z M120.471,96.083l-6.058-2.703v-5.53v-2.104l6.058,2.717V96.083z M131.098,100.814l-2.033-0.916v-7.642l2.033,0.916
			V100.814z"/>
	</g>
	<g>
		<polygon fill="#F7941D" points="93.362,76.27 102.133,72.552 102.133,60.402 93.362,64.139 		"/>
	</g>
	<g>
		<path fill="#F7941D" d="M93.362,127.236c2.983-0.363,5.913-0.902,8.771-1.629V75.985L93.362,79.7V127.236z"/>
	</g>
	<g>
		<path fill="#F7941D" d="M41.049,57.807v55.063c12.031,9.342,27.139,14.922,43.555,14.922c1.124,0,2.239-0.033,3.354-0.084
			c0.866-0.041,1.724-0.11,2.581-0.182V84.454V82.04V69.917V59.79l-49.49-22.096V57.807z M72.732,64.382V61.56l8.12,3.646v10.222
			l-8.12-3.625V64.382z M72.732,86.027v-2.822l8.12,3.646v10.221l-8.12-3.623V86.027z M72.732,107.671v-2.819l8.12,3.646v10.221
			l-8.12-3.625V107.671z M53.102,55.617v-2.822l8.12,3.648v10.221l-8.12-3.627V55.617z M53.102,77.26v-2.819l8.12,3.646v10.221
			l-8.12-3.625V77.26z M53.102,98.905v-2.82l8.12,3.646v10.221l-8.12-3.625V98.905z"/>
	</g>
</g>
<g>
	<g>
		<path fill="#606060" d="M148.46,13.719c2.782-0.568,6.767-0.886,10.561-0.886c5.881,0,9.675,1.076,12.33,3.479
			c2.149,1.896,3.352,4.805,3.352,8.094c0,5.627-3.541,9.358-8.03,10.875v0.188c3.29,1.139,5.249,4.174,6.263,8.601
			c1.391,5.943,2.4,10.054,3.288,11.697h-5.692c-0.693-1.2-1.643-4.869-2.845-10.181c-1.268-5.88-3.541-8.094-8.537-8.284h-5.188
			v18.465h-5.5L148.46,13.719L148.46,13.719z M153.96,33.132h5.628c5.883,0,9.612-3.225,9.612-8.094
			c0-5.501-3.983-7.904-9.803-7.967c-2.654,0-4.553,0.253-5.438,0.506L153.96,33.132L153.96,33.132z"/>
	</g>
	<g>
		<path fill="#606060" d="M204.54,35.787h-16.565v15.365h18.464v4.616h-23.964V13.15h23.017v4.616h-17.517v13.468h16.565V35.787z"/>
	</g>
	<g>
		<path fill="#606060" d="M213.576,13.15h5.5v20.551h0.188c1.14-1.644,2.275-3.162,3.354-4.553L235.64,13.15h6.831L227.04,31.235
			l16.631,24.534h-6.513L223.12,34.839l-4.047,4.68v16.25h-5.5V13.15H213.576z"/>
	</g>
	<g>
		<path fill="#606060" d="M283.184,34.018c0,14.67-8.916,22.446-19.791,22.446c-11.257,0-19.16-8.727-19.16-21.626
			c0-13.53,8.41-22.384,19.793-22.384C275.662,12.454,283.184,21.37,283.184,34.018z M250.115,34.712
			c0,9.106,4.933,17.264,13.596,17.264c8.727,0,13.656-8.03,13.656-17.704c0-8.474-4.427-17.326-13.594-17.326
			C254.668,16.944,250.115,25.354,250.115,34.712z"/>
	</g>
	<g>
		<path fill="#606060" d="M290.324,55.769V13.15h6.006l13.658,21.562c3.162,4.996,5.629,9.486,7.649,13.85l0.126-0.063
			c-0.506-5.691-0.633-10.877-0.633-17.517V13.15h5.188v42.618h-5.563l-13.53-21.625c-2.974-4.743-5.816-9.612-7.97-14.229
			l-0.188,0.063c0.315,5.375,0.442,10.496,0.442,17.578v18.21h-5.188L290.324,55.769L290.324,55.769z"/>
	</g>
	<g>
		<path fill="#606060" d="M331.163,49.066c2.468,1.518,6.071,2.782,9.865,2.782c5.626,0,8.913-2.974,8.913-7.271
			c0-3.983-2.275-6.26-8.029-8.473c-6.955-2.466-11.255-6.07-11.255-12.077c0-6.64,5.502-11.572,13.785-11.572
			c4.361,0,7.522,1.012,9.42,2.087l-1.519,4.49c-1.393-0.758-4.234-2.023-8.094-2.023c-5.818,0-8.029,3.478-8.029,6.387
			c0,3.983,2.594,5.943,8.475,8.22c7.208,2.783,10.875,6.26,10.875,12.52c0,6.575-4.869,12.268-14.922,12.268
			c-4.109,0-8.602-1.202-10.877-2.72L331.163,49.066z M341.343,10.685l-6.641-7.208h4.682l4.047,4.426h0.127l3.981-4.426h4.489
			l-6.45,7.208H341.343z"/>
	</g>
	<g>
		<path fill="#606060" d="M371.182,17.83h-12.963v-4.68h31.555v4.68h-13.025v37.938h-5.563V17.83H371.182z"/>
	</g>
	<g>
		<path fill="#606060" d="M394.51,13.719c2.779-0.568,6.768-0.886,10.561-0.886c5.881,0,9.676,1.076,12.33,3.479
			c2.148,1.896,3.353,4.805,3.353,8.094c0,5.627-3.54,9.358-8.03,10.875v0.188c3.287,1.139,5.25,4.174,6.264,8.601
			c1.389,5.943,2.4,10.054,3.286,11.697h-5.69c-0.691-1.2-1.645-4.869-2.846-10.181c-1.266-5.88-3.539-8.094-8.535-8.284h-5.188
			v18.465h-5.5L394.51,13.719L394.51,13.719z M400.01,33.132h5.629c5.883,0,9.609-3.225,9.609-8.094
			c0-5.501-3.982-7.904-9.803-7.967c-2.654,0-4.555,0.253-5.438,0.506L400.01,33.132L400.01,33.132z"/>
	</g>
	<g>
		<path fill="#606060" d="M434.021,13.15V38.38c0,9.547,4.236,13.595,9.928,13.595c6.322,0,10.371-4.174,10.371-13.595V13.15h5.563
			v24.851c0,13.089-6.891,18.464-16.121,18.464c-8.729,0-15.303-4.996-15.303-18.211V13.15H434.021z"/>
	</g>
	<g>
		<path fill="#606060" d="M469.427,13.15h5.498v20.551h0.189c1.141-1.644,2.275-3.162,3.354-4.553l13.021-15.998h6.832
			l-15.434,18.084l16.634,24.534h-6.517L478.97,34.838l-4.049,4.68v16.25h-5.498L469.427,13.15L469.427,13.15z"/>
	</g>
	<g>
		<path fill="#606060" d="M532.393,54.378c-2.021,1.012-6.066,2.023-11.252,2.023c-12.016,0-21.057-7.589-21.057-21.563
			c0-13.342,9.041-22.384,22.256-22.384c5.313,0,8.666,1.139,10.119,1.897l-1.326,4.489c-2.09-1.011-5.063-1.771-8.602-1.771
			c-9.991,0-16.633,6.387-16.633,17.578c0,10.433,6.008,17.136,16.379,17.136c3.354,0,6.766-0.695,8.979-1.771L532.393,54.378z"/>
	</g>
	<g>
		<path fill="#606060" d="M544.781,13.15v42.618h-5.496V13.15H544.781z"/>
	</g>
	<g>
		<path fill="#606060" d="M576.461,35.787h-16.57v15.365h18.467v4.616h-23.961V13.15h23.016v4.616H559.89v13.468h16.567v4.553
			H576.461z"/>
	</g>
	<g>
		<path fill="#606060" d="M148.46,63.759c2.402-0.506,6.196-0.886,10.055-0.886c5.502,0,9.043,0.949,11.696,3.1
			c2.214,1.645,3.543,4.174,3.543,7.523c0,4.11-2.721,7.713-7.21,9.358v0.127c4.047,1.012,8.79,4.362,8.79,10.686
			c0,3.668-1.453,6.451-3.604,8.537c-2.974,2.719-7.776,3.984-14.731,3.984c-3.793,0-6.704-0.254-8.537-0.508L148.46,63.759
			L148.46,63.759z M153.96,81.21h4.996c5.817,0,9.231-3.034,9.231-7.144c0-4.996-3.793-6.955-9.358-6.955
			c-2.528,0-3.981,0.188-4.869,0.379V81.21z M153.96,101.635c1.075,0.189,2.657,0.253,4.616,0.253c5.69,0,10.939-2.087,10.939-8.283
			c0-5.816-4.996-8.222-11.004-8.222h-4.555L153.96,101.635L153.96,101.635z"/>
	</g>
	<g>
		<path fill="#606060" d="M191.258,105.808V87.724L177.791,63.19h6.259l6.01,11.761c1.644,3.226,2.906,5.818,4.234,8.789h0.126
			c1.2-2.781,2.655-5.563,4.303-8.789l6.132-11.761h6.262l-14.291,24.471v18.146L191.258,105.808L191.258,105.808z"/>
	</g>
	<g>
		<path fill="#606060" d="M226.219,67.87h-12.965v-4.68h31.555v4.68h-13.026v37.938h-5.563L226.219,67.87L226.219,67.87z"/>
	</g>
	<g>
		<path fill="#606060" d="M284.259,84.056c0,14.67-8.914,22.448-19.789,22.448c-11.26,0-19.162-8.727-19.162-21.627
			c0-13.53,8.408-22.384,19.794-22.384C276.733,62.494,284.259,71.41,284.259,84.056z M251.188,84.751
			c0,9.107,4.933,17.265,13.596,17.265c8.724,0,13.656-8.031,13.656-17.705c0-8.474-4.427-17.326-13.594-17.326
			C255.742,66.984,251.188,75.395,251.188,84.751z"/>
	</g>
	<g>
		<path fill="#606060" d="M300.756,105.808l-13.91-42.618h5.941l6.643,20.993c1.832,5.754,3.414,10.938,4.555,15.936h0.127
			c1.197-4.934,2.971-10.307,4.865-15.871l7.211-21.057h5.881l-15.238,42.618L300.756,105.808L300.756,105.808L300.756,105.808z"/>
	</g>
</g>
<g>
	<g>
		<path fill="#606060" d="M148.541,114.525c0.98-0.201,2.391-0.312,3.729-0.312c2.077,0,3.417,0.381,4.354,1.228
			c0.759,0.672,1.185,1.697,1.185,2.856c0,1.988-1.25,3.308-2.836,3.841v0.069c1.161,0.402,1.854,1.472,2.212,3.035
			c0.489,2.098,0.846,3.549,1.16,4.129h-2.01c-0.247-0.424-0.581-1.719-1.006-3.592c-0.447-2.078-1.25-2.859-3.016-2.926h-1.831
			v6.518h-1.94L148.541,114.525L148.541,114.525z M150.482,121.38h1.987c2.075,0,3.396-1.139,3.396-2.858
			c0-1.941-1.407-2.787-3.463-2.812c-0.938,0-1.607,0.088-1.92,0.179V121.38z"/>
	</g>
	<g>
		<path fill="#606060" d="M168.351,122.318H162.5v5.428h6.521v1.627h-8.462v-15.049h8.126v1.633H162.5v4.756h5.853L168.351,122.318
			L168.351,122.318z"/>
	</g>
	<g>
		<path fill="#606060" d="M171.55,114.323h1.942v7.256h0.066c0.399-0.58,0.804-1.113,1.184-1.604l4.601-5.65h2.411l-5.445,6.389
			l5.871,8.66h-2.301l-4.957-7.389l-1.429,1.651v5.736h-1.942L171.55,114.323L171.55,114.323z"/>
	</g>
	<g>
		<path fill="#606060" d="M196.137,121.693c0,5.18-3.147,7.926-6.99,7.926c-3.975,0-6.767-3.082-6.767-7.635
			c0-4.777,2.973-7.904,6.99-7.904C193.481,114.079,196.137,117.229,196.137,121.693z M184.461,121.939
			c0,3.215,1.743,6.094,4.804,6.094c3.081,0,4.819-2.836,4.819-6.25c0-2.99-1.563-6.119-4.799-6.119
			C186.068,115.663,184.461,118.634,184.461,121.939z"/>
	</g>
	<g>
		<path fill="#606060" d="M198.67,129.372v-15.049h2.12l4.823,7.615c1.114,1.764,1.987,3.35,2.7,4.891l0.046-0.021
			c-0.179-2.013-0.228-3.843-0.228-6.188v-6.297h1.831v15.049H208l-4.775-7.635c-1.051-1.674-2.057-3.396-2.813-5.021l-0.066,0.021
			c0.112,1.896,0.156,3.705,0.156,6.205v6.43H198.67z"/>
	</g>
	<g>
		<path fill="#606060" d="M213.099,127.007c0.87,0.537,2.146,0.982,3.481,0.982c1.985,0,3.147-1.049,3.147-2.568
			c0-1.405-0.807-2.209-2.836-2.989c-2.457-0.873-3.977-2.146-3.977-4.267c0-2.344,1.943-4.086,4.867-4.086
			c1.54,0,2.655,0.357,3.326,0.738l-0.533,1.584c-0.494-0.269-1.497-0.715-2.856-0.715c-2.058,0-2.839,1.229-2.839,2.254
			c0,1.41,0.914,2.1,2.992,2.903c2.545,0.984,3.839,2.209,3.839,4.423c0,2.319-1.719,4.33-5.269,4.33
			c-1.451,0-3.037-0.427-3.841-0.959L213.099,127.007z M216.695,113.456l-2.346-2.549H216l1.432,1.564h0.045l1.406-1.564h1.583
			l-2.275,2.549H216.695z"/>
	</g>
	<g>
		<path fill="#606060" d="M227.239,115.979h-4.577v-1.654h11.144v1.654h-4.603v13.395h-1.964V115.979z"/>
	</g>
	<g>
		<path fill="#606060" d="M235.483,114.525c0.979-0.201,2.39-0.312,3.729-0.312c2.077,0,3.417,0.381,4.354,1.228
			c0.761,0.672,1.184,1.697,1.184,2.856c0,1.988-1.251,3.308-2.837,3.841v0.069c1.161,0.402,1.854,1.472,2.213,3.035
			c0.49,2.098,0.848,3.549,1.16,4.129h-2.01c-0.246-0.424-0.58-1.719-1.006-3.592c-0.446-2.078-1.25-2.859-3.017-2.926h-1.83v6.518
			h-1.939L235.483,114.525L235.483,114.525z M237.425,121.38h1.986c2.078,0,3.396-1.139,3.396-2.858
			c0-1.941-1.406-2.787-3.461-2.812c-0.938,0-1.607,0.088-1.922,0.179L237.425,121.38L237.425,121.38z"/>
	</g>
	<g>
		<path fill="#606060" d="M249.442,114.323v8.91c0,3.373,1.496,4.799,3.507,4.799c2.231,0,3.659-1.473,3.659-4.799v-8.91h1.968
			v8.775c0,4.623-2.435,6.52-5.694,6.52c-3.081,0-5.399-1.764-5.399-6.428v-8.867H249.442z"/>
	</g>
	<g>
		<path fill="#606060" d="M261.955,114.323h1.94v7.256h0.066c0.4-0.58,0.805-1.113,1.184-1.604l4.603-5.65h2.41l-5.447,6.389
			l5.871,8.66h-2.301l-4.956-7.389l-1.43,1.651v5.736h-1.94V114.323L261.955,114.323z"/>
	</g>
	<g>
		<path fill="#606060" d="M284.198,128.884c-0.715,0.355-2.143,0.714-3.977,0.714c-4.24,0-7.436-2.683-7.436-7.613
			c0-4.711,3.192-7.904,7.858-7.904c1.877,0,3.06,0.402,3.57,0.67l-0.467,1.586c-0.736-0.356-1.787-0.625-3.037-0.625
			c-3.525,0-5.873,2.252-5.873,6.205c0,3.688,2.121,6.053,5.783,6.053c1.185,0,2.391-0.245,3.17-0.627L284.198,128.884z"/>
	</g>
	<g>
		<path fill="#606060" d="M288.581,114.323v15.049h-1.94v-15.049H288.581z"/>
	</g>
	<g>
		<path fill="#606060" d="M294.41,124.64l-1.563,4.731h-2.011l5.114-15.049h2.344l5.137,15.049h-2.076l-1.607-4.731H294.41z
			 M299.344,123.122l-1.474-4.33c-0.336-0.983-0.559-1.877-0.783-2.748h-0.045c-0.223,0.894-0.469,1.812-0.759,2.726l-1.472,4.354
			L299.344,123.122L299.344,123.122z"/>
	</g>
	<g>
		<path fill="#606060" d="M310.385,114.525c0.851-0.176,2.188-0.312,3.55-0.312c1.941,0,3.193,0.334,4.131,1.095
			c0.781,0.58,1.253,1.473,1.253,2.653c0,1.453-0.962,2.729-2.546,3.31v0.043c1.429,0.356,3.102,1.541,3.102,3.772
			c0,1.295-0.512,2.279-1.271,3.015c-1.05,0.959-2.745,1.405-5.202,1.405c-1.342,0-2.365-0.088-3.015-0.178L310.385,114.525
			L310.385,114.525z M312.328,120.691h1.766c2.055,0,3.262-1.074,3.262-2.525c0-1.764-1.342-2.455-3.307-2.455
			c-0.895,0-1.408,0.066-1.721,0.133V120.691L312.328,120.691z M312.328,127.9c0.379,0.067,0.938,0.09,1.629,0.09
			c2.012,0,3.863-0.738,3.863-2.924c0-2.056-1.767-2.902-3.887-2.902h-1.605V127.9L312.328,127.9z"/>
	</g>
	<g>
		<path fill="#606060" d="M325.508,129.372v-6.383l-4.757-8.666h2.212l2.12,4.154c0.581,1.139,1.025,2.055,1.495,3.102h0.045
			c0.426-0.979,0.938-1.963,1.521-3.102l2.164-4.154h2.214l-5.047,8.643v6.406H325.508z"/>
	</g>
	<g>
		<path fill="#606060" d="M337.861,115.979h-4.578v-1.654h11.144v1.654h-4.603v13.395h-1.963V115.979L337.861,115.979z"/>
	</g>
	<g>
		<path fill="#606060" d="M348.049,114.323v8.91c0,3.373,1.496,4.799,3.506,4.799c2.229,0,3.66-1.473,3.66-4.799v-8.91h1.965v8.775
			c0,4.623-2.434,6.52-5.691,6.52c-3.08,0-5.399-1.764-5.399-6.428v-8.867H348.049z"/>
	</g>
	<g>
		<path fill="#606060" d="M365.295,129.372v-15.049h2.119l4.824,7.615c1.114,1.764,1.984,3.35,2.701,4.891l0.045-0.021
			c-0.182-2.013-0.227-3.843-0.227-6.188v-6.297h1.83v15.049h-1.965l-4.775-7.635c-1.051-1.674-2.055-3.396-2.813-5.021
			l-0.066,0.021c0.111,1.896,0.157,3.705,0.157,6.205v6.43H365.295z"/>
	</g>
	<g>
		<path fill="#606060" d="M382.427,124.64l-1.563,4.731h-2.008l5.111-15.049h2.343l5.138,15.049h-2.078l-1.605-4.731H382.427z
			 M387.361,123.122l-1.475-4.33c-0.336-0.983-0.561-1.877-0.781-2.748h-0.047c-0.223,0.894-0.469,1.812-0.758,2.726l-1.475,4.354
			L387.361,123.122L387.361,123.122z"/>
	</g>
</g>
<path fill="#606060" d="M398.51,114.583h1.907v7.131h0.065c0.396-0.569,0.79-1.096,1.162-1.578l4.521-5.553h2.369l-5.354,6.275
	l5.771,8.514h-2.26l-4.871-7.262l-1.402,1.623v5.639h-1.908L398.51,114.583L398.51,114.583z"/>
<path fill="#606060" d="M410.405,114.583h1.907v13.188h6.318v1.602h-8.229L410.405,114.583L410.405,114.583z M414.069,117.415
	c0.834-0.133,1.646-0.572,1.646-1.428c0-0.525-0.373-1.01-0.746-1.338l1.429-0.308c0.438,0.285,0.877,0.898,0.877,1.623
	c0,1.603-1.492,2.261-2.83,2.349L414.069,117.415z"/>
<path fill="#606060" d="M421.885,114.583v8.756c0,3.313,1.473,4.718,3.443,4.718c2.194,0,3.601-1.447,3.601-4.718v-8.756h1.933
	v8.623c0,4.543-2.394,6.408-5.597,6.408c-3.026,0-5.313-1.734-5.313-6.32v-8.711H421.885z M428.684,111.227l-2.809,2.567h-1.561
	l2.021-2.567H428.684z"/>
<path fill="#606060" d="M444.51,128.89c-0.702,0.352-2.104,0.702-3.903,0.702c-4.171,0-7.309-2.635-7.309-7.481
	c0-4.631,3.138-7.769,7.726-7.769c1.843,0,3.006,0.396,3.511,0.658l-0.461,1.558c-0.726-0.351-1.755-0.613-2.982-0.613
	c-3.469,0-5.771,2.215-5.771,6.1c0,3.621,2.085,5.945,5.684,5.945c1.162,0,2.35-0.24,3.115-0.613L444.51,128.89z M439.509,113.729
	l-2.282-2.502h1.604l1.404,1.537h0.044l1.382-1.537h1.58l-2.262,2.502H439.509z"/>
</svg>
